<?xml version="1.0" encoding="UTF-8" standalone="no"?>
<svg
   xmlns:dc="http://purl.org/dc/elements/1.1/"
   xmlns:cc="http://creativecommons.org/ns#"
   xmlns:rdf="http://www.w3.org/1999/02/22-rdf-syntax-ns#"
   xmlns:svg="http://www.w3.org/2000/svg"
   xmlns="http://www.w3.org/2000/svg"
   xmlns:sodipodi="http://sodipodi.sourceforge.net/DTD/sodipodi-0.dtd"
   xmlns:inkscape="http://www.inkscape.org/namespaces/inkscape"
   width="512mm"
   height="512mm"
   viewBox="0 0 512 512"
   version="1.1"
   id="svg8"
   inkscape:version="1.0 (4035a4fb49, 2020-05-01)"
   sodipodi:docname="chrome_b.svg">
  <defs
     id="defs2" />
  <sodipodi:namedview
     id="base"
     pagecolor="#ffffff"
     bordercolor="#666666"
     borderopacity="1.0"
     inkscape:pageopacity="0.0"
     inkscape:pageshadow="2"
     inkscape:zoom="0.175"
     inkscape:cx="1048.9366"
     inkscape:cy="22.308415"
     inkscape:document-units="mm"
     inkscape:current-layer="layer2"
     inkscape:document-rotation="0"
     showgrid="false"
     inkscape:window-width="1440"
     inkscape:window-height="837"
     inkscape:window-x="-8"
     inkscape:window-y="-8"
     inkscape:window-maximized="1" />
  <metadata
     id="metadata5">
    <rdf:RDF>
      <cc:Work
         rdf:about="">
        <dc:format>image/svg+xml</dc:format>
        <dc:type
           rdf:resource="http://purl.org/dc/dcmitype/StillImage" />
        <dc:title />
      </cc:Work>
    </rdf:RDF>
  </metadata>
  <g
     inkscape:groupmode="layer"
     id="layer2"
     inkscape:label="Layer 2"
     style="display:inline">
    <path
       style="display:inline;fill:#000000;stroke-width:0.999101"
       d="m 256.19982,510.57081 c -0.65941,-0.65941 -1.19892,-1.97142 -1.19892,-2.91557 0,-1.48553 88.93655,-156.62637 106.46336,-185.71461 12.90648,-21.42013 18.62006,-41.29448 18.66972,-64.94153 0.0682,-32.51353 -10.11516,-59.59279 -31.56067,-83.92444 -6.68091,-7.58003 -7.62327,-9.61786 -5.45175,-11.78939 0.91104,-0.91104 18.84353,-1.19524 74.68277,-1.18362 40.41611,0.008 74.05837,0.3799 74.76058,0.82551 3.51933,2.23334 13.67502,38.70811 16.87397,60.60387 2.64098,18.07662 2.40062,53.34895 -0.4902,71.93524 -6.73055,43.2735 -22.99562,81.93735 -49.26236,117.10208 -9.42683,12.62022 -36.58267,39.80575 -49.03719,49.0908 -39.90374,29.7489 -83.54303,46.49122 -133.16847,51.09038 -14.37716,1.33244 -19.81536,1.28676 -21.28084,-0.17872 z m -48.15664,-3.2729 C 157.55127,496.93757 113.80955,473.97965 77.954462,439.0206 55.485044,417.1127 40.804978,396.97712 27.19526,369.39791 17.860418,350.48146 13.304724,338.41802 8.7613853,320.58514 -6.9823305,258.79017 -0.36601896,197.00179 28.056125,140.39551 c 5.637389,-11.22757 7.772379,-13.2774 10.954398,-10.51745 1.806605,1.56698 99.255067,169.54573 105.382657,181.6555 7.92743,15.66672 22.78975,33.30786 37.18323,44.13541 13.85826,10.42492 34.3923,19.39584 52.40031,22.89265 12.50191,2.42762 33.65992,2.18073 46.66544,-0.54453 17.15482,-3.59474 17.29427,-2.69475 3.34387,21.57987 -62.33648,108.4696 -62.4536,108.66253 -66.07739,108.8547 -1.85422,0.0983 -6.29368,-0.42086 -9.86546,-1.15375 z M 245.8759,350.85652 c -40.82075,-4.4207 -74.8873,-35.24395 -83.30511,-75.37406 -2.20235,-10.49927 -2.19927,-28.4948 0.007,-38.95032 7.68946,-36.44562 37.63493,-66.39043 73.94006,-73.93843 10.45239,-2.17309 28.51253,-2.17309 38.96492,0 23.72687,4.93292 46.26294,20.31433 59.9264,40.9012 10.68569,16.10025 15.65916,32.77627 15.65916,52.50509 0,19.82202 -4.96965,36.39962 -15.80632,52.72626 -19.55257,29.45805 -54.46271,45.91227 -89.38581,42.13026 z M 128.38495,226.77631 C 126.06712,223.8042 55.180798,100.12447 55.180798,99.052507 c 0,-2.167939 10.943176,-14.60594 23.867532,-27.127808 21.01714,-20.362633 39.54691,-33.259352 66.55106,-46.319546 77.49591,-37.47985 169.59101,-32.818473 243.78053,12.338909 30.16625,18.361477 60.37912,47.573398 79.82743,77.182768 7.70888,11.7365 8.10983,12.76038 5.93716,15.16115 -1.65241,1.82589 -5.25852,1.88158 -117.16862,1.80918 -98.70847,-0.0638 -116.6975,0.14391 -123.96571,1.43173 -35.4657,6.28397 -67.06685,28.31689 -85.42134,59.55737 -4.70816,8.0136 -9.7768,19.55676 -11.55878,26.32367 -1.99509,7.57615 -5.89199,10.89664 -8.64511,7.36638 z"
       id="path848" />
  </g>
</svg>
