<?xml version="1.0" encoding="UTF-8" standalone="no"?>
<svg
   xmlns:dc="http://purl.org/dc/elements/1.1/"
   xmlns:cc="http://creativecommons.org/ns#"
   xmlns:rdf="http://www.w3.org/1999/02/22-rdf-syntax-ns#"
   xmlns:svg="http://www.w3.org/2000/svg"
   xmlns="http://www.w3.org/2000/svg"
   xmlns:sodipodi="http://sodipodi.sourceforge.net/DTD/sodipodi-0.dtd"
   xmlns:inkscape="http://www.inkscape.org/namespaces/inkscape"
   width="512mm"
   height="512mm"
   viewBox="0 0 512 512"
   version="1.1"
   id="svg8"
   inkscape:version="1.0 (4035a4fb49, 2020-05-01)"
   sodipodi:docname="chrome_bw.svg"
   inkscape:export-filename="D:\projects\chrome-blank-newtab\icons\16.png"
   inkscape:export-xdpi="0.79374999"
   inkscape:export-ydpi="0.79374999">
  <defs
     id="defs2" />
  <sodipodi:namedview
     inkscape:pagecheckerboard="true"
     id="base"
     pagecolor="#ffffff"
     bordercolor="#666666"
     borderopacity="1.0"
     inkscape:pageopacity="0.0"
     inkscape:pageshadow="2"
     inkscape:zoom="0.0875"
     inkscape:cx="178.81676"
     inkscape:cy="2099.0121"
     inkscape:document-units="mm"
     inkscape:current-layer="layer2"
     inkscape:document-rotation="0"
     showgrid="false"
     inkscape:window-width="1440"
     inkscape:window-height="837"
     inkscape:window-x="-8"
     inkscape:window-y="-8"
     inkscape:window-maximized="1" />
  <metadata
     id="metadata5">
    <rdf:RDF>
      <cc:Work
         rdf:about="">
        <dc:format>image/svg+xml</dc:format>
        <dc:type
           rdf:resource="http://purl.org/dc/dcmitype/StillImage" />
        <dc:title />
      </cc:Work>
    </rdf:RDF>
  </metadata>
  <g
     inkscape:groupmode="layer"
     id="layer2"
     inkscape:label="Layer 2"
     style="display:inline">
    <path
       style="display:inline;fill:#ffffff;stroke:#000000;stroke-width:9.8398;stroke-miterlimit:4;stroke-dasharray:none;stroke-opacity:1"
       d="m 255.2715,504.53666 c -0.65107,-0.64663 -1.18379,-1.93318 -1.18379,-2.85904 0,-1.45672 87.81323,-153.58851 105.11867,-182.11257 12.74344,-21.00468 18.38486,-40.49356 18.43389,-63.68197 0.0674,-31.8829 -9.98738,-58.43693 -31.16204,-82.29667 -6.59653,-7.43301 -7.52697,-9.43131 -5.38288,-11.56073 0.89952,-0.89338 18.60553,-1.17206 73.73946,-1.16067 39.90562,0.009 73.12295,0.37254 73.81628,0.80949 3.47488,2.19003 13.50231,37.95736 16.66084,59.42843 2.60766,17.72604 2.37027,52.31424 -0.484,70.54005 -6.64553,42.43418 -22.70517,80.34812 -48.64015,114.83082 -9.30775,12.37542 -36.1206,39.03368 -48.41779,48.13865 -39.39973,29.17193 -82.48784,45.5895 -131.48645,50.09944 -14.19556,1.3066 -19.56508,1.26181 -21.01204,-0.17523 z m -47.54837,-3.20942 C 157.86897,491.16784 114.67975,468.65518 79.277555,434.37419 57.091935,412.8912 42.59728,393.14616 29.15948,366.10187 19.942541,347.55232 15.444383,335.72285 10.958432,318.23583 -4.5864154,257.63941 1.9463291,197.04947 30.009473,141.5411 c 5.566188,-11.00982 7.674205,-13.0199 10.816028,-10.31346 1.783779,1.53657 98.001389,166.25729 104.051579,178.13219 7.8273,15.36286 22.50189,32.66183 36.71357,43.27938 13.68321,10.22271 33.9579,19.01964 51.73845,22.44864 12.34398,2.38052 33.23478,2.13843 46.07601,-0.53398 16.93814,-3.52501 17.07584,-2.64247 3.30164,21.16133 -61.54912,106.36578 -61.66476,106.55496 -65.24277,106.74341 -1.83081,0.0964 -6.21421,-0.4127 -9.74085,-1.13137 z m 37.35486,-153.40713 c -40.30516,-4.33496 -73.94141,-34.56038 -82.25291,-73.91215 -2.17453,-10.29562 -2.17147,-27.94214 0.007,-38.19485 7.59232,-35.73876 37.15958,-65.10277 73.00612,-72.50435 10.32037,-2.13096 28.15241,-2.13096 38.47278,0 23.42717,4.83721 45.67858,19.9203 59.16947,40.10788 10.55071,15.78799 15.46138,32.14056 15.46138,51.48672 0,19.43755 -4.90689,35.69365 -15.60667,51.70363 -19.30561,28.88668 -53.77482,45.02175 -88.2568,41.31312 z M 129.07104,226.24648 c -2.28855,-2.91445 -72.279503,-124.19534 -72.279503,-125.24653 0,-2.125893 10.80495,-14.322659 23.56607,-26.60165 20.751653,-19.96768 39.047383,-32.614259 65.710433,-45.421156 76.51708,-36.7529074 167.44893,-32.1819444 240.70139,12.099584 29.78521,18.005355 59.61646,46.650691 78.81913,75.685772 7.61153,11.50886 8.00742,12.51288 5.86217,14.86709 -1.63153,1.79048 -5.19209,1.8451 -115.68868,1.7741 -97.46169,-0.0623 -115.22351,0.14113 -122.3999,1.40396 -35.01775,6.16209 -66.21977,27.76766 -84.34242,58.40221 -4.64867,7.85817 -9.65331,19.17746 -11.41277,25.81313 -1.9699,7.42919 -5.81757,10.68528 -8.53592,7.22349 z"
       id="path848" />
  </g>
</svg>
